<svg width="20" height="21" viewBox="0 0 20 21" fill="none" xmlns="http://www.w3.org/2000/svg">
<path d="M17.4998 13V15.5H19.9998V17.1667H17.4998V19.6667H15.8332V17.1667H13.3332V15.5H15.8332V13H17.4998ZM17.5065 3C17.9632 3 18.3332 3.37083 18.3332 3.8275V11.6183C17.7979 11.4292 17.2342 11.3329 16.6665 11.3333V4.66667H3.33317L3.334 16.3333L11.0773 8.58917C11.2206 8.4454 11.4115 8.35894 11.6141 8.34605C11.8167 8.33316 12.017 8.39472 12.1773 8.51917L12.2548 8.59L15.2098 11.5483C14.5637 11.7452 13.9641 12.0709 13.4473 12.5058C12.9304 12.9407 12.507 13.4757 12.2025 14.0787C11.8981 14.6816 11.7189 15.34 11.6757 16.0141C11.6326 16.6881 11.7264 17.364 11.9515 18.0008L2.49317 18C2.27385 17.9998 2.06358 17.9125 1.90858 17.7573C1.75357 17.6022 1.6665 17.3918 1.6665 17.1725V3.8275C1.66803 3.60865 1.75559 3.39918 1.91026 3.24435C2.06494 3.08951 2.27432 3.00175 2.49317 3H17.5065ZM6.6665 6.33333C7.10853 6.33333 7.53245 6.50893 7.84502 6.82149C8.15758 7.13405 8.33317 7.55797 8.33317 8C8.33317 8.44203 8.15758 8.86595 7.84502 9.17851C7.53245 9.49107 7.10853 9.66667 6.6665 9.66667C6.22448 9.66667 5.80055 9.49107 5.48799 9.17851C5.17543 8.86595 4.99984 8.44203 4.99984 8C4.99984 7.55797 5.17543 7.13405 5.48799 6.82149C5.80055 6.50893 6.22448 6.33333 6.6665 6.33333Z" fill="#A1A2B3"/>
</svg>
