<svg width="16" height="16" viewBox="0 0 16 16" fill="none" xmlns="http://www.w3.org/2000/svg">
<g clip-path="url(#clip0_22_400)">
<path d="M3.33317 1.33337H12.6665C12.8433 1.33337 13.0129 1.40361 13.1379 1.52864C13.2629 1.65366 13.3332 1.82323 13.3332 2.00004V14.762C13.3332 14.8216 13.3173 14.8802 13.2871 14.9315C13.2569 14.9829 13.2134 15.0252 13.1613 15.0541C13.1091 15.083 13.0502 15.0973 12.9906 15.0957C12.931 15.094 12.873 15.0764 12.8225 15.0447L7.99984 12.02L3.17717 15.044C3.12675 15.0757 3.06876 15.0933 3.00924 15.095C2.94971 15.0967 2.89083 15.0824 2.8387 15.0536C2.78657 15.0248 2.74311 14.9826 2.71283 14.9313C2.68254 14.88 2.66655 14.8216 2.6665 14.762V2.00004C2.6665 1.82323 2.73674 1.65366 2.86177 1.52864C2.98679 1.40361 3.15636 1.33337 3.33317 1.33337ZM11.9998 2.66671H3.99984V12.9547L7.99984 10.4474L11.9998 12.9547V2.66671ZM5.33317 6.00004H10.6665V7.33337H5.33317V6.00004Z" fill="#7D7F96"/>
</g>
<defs>
<clipPath id="clip0_22_400">
<rect width="16" height="16" fill="white"/>
</clipPath>
</defs>
</svg>
