<svg width="20" height="21" viewBox="0 0 20 21" fill="none" xmlns="http://www.w3.org/2000/svg">
<g clip-path="url(#clip0_18_465)">
<path d="M1.6665 4.66663L7.49984 2.16663L12.4998 4.66663L17.7523 2.41579C17.8157 2.38861 17.8849 2.3776 17.9536 2.38374C18.0223 2.38989 18.0884 2.413 18.146 2.451C18.2036 2.489 18.2508 2.5407 18.2835 2.60146C18.3162 2.66222 18.3332 2.73014 18.3332 2.79913V16.3333L12.4998 18.8333L7.49984 16.3333L2.24734 18.5841C2.18393 18.6113 2.11477 18.6223 2.04606 18.6162C1.97735 18.61 1.91124 18.5869 1.85366 18.5489C1.79608 18.5109 1.74884 18.4592 1.71618 18.3985C1.68351 18.3377 1.66644 18.2698 1.6665 18.2008V4.66663ZM12.4998 16.97V6.47996L12.4457 6.50329L7.49984 4.02996V14.52L7.554 14.4966L12.4998 16.97Z" fill="#A1A2B3"/>
</g>
<defs>
<clipPath id="clip0_18_465">
<rect width="20" height="20" fill="white" transform="translate(0 0.5)"/>
</clipPath>
</defs>
</svg>
