<svg width="20" height="21" viewBox="0 0 20 21" fill="none" xmlns="http://www.w3.org/2000/svg">
<g clip-path="url(#clip0_18_464)">
<path d="M15.3035 13.4467L14.1252 12.2667L15.3035 11.0883C15.6932 10.702 16.0028 10.2426 16.2144 9.73632C16.4261 9.23007 16.5357 8.687 16.5369 8.13829C16.5381 7.58959 16.4309 7.04604 16.2214 6.53887C16.012 6.0317 15.7045 5.57089 15.3165 5.18289C14.9285 4.7949 14.4677 4.48736 13.9605 4.27793C13.4533 4.0685 12.9098 3.96131 12.3611 3.96251C11.8124 3.96372 11.2693 4.07328 10.7631 4.28493C10.2568 4.49658 9.79734 4.80613 9.41105 5.19582L8.23271 6.37499L7.05355 5.19666L8.23355 4.01832C9.32756 2.92431 10.8114 2.30969 12.3585 2.30969C13.9057 2.30969 15.3895 2.92431 16.4835 4.01832C17.5776 5.11234 18.1922 6.59615 18.1922 8.14332C18.1922 9.6905 17.5776 11.1743 16.4835 12.2683L15.3044 13.4467H15.3035ZM12.9469 15.8033L11.7677 16.9817C10.6737 18.0757 9.18989 18.6903 7.64271 18.6903C6.09554 18.6903 4.61173 18.0757 3.51771 16.9817C2.4237 15.8876 1.80908 14.4038 1.80908 12.8567C1.80908 11.3095 2.4237 9.82568 3.51771 8.73166L4.69688 7.55332L5.87521 8.73332L4.69688 9.91166C4.30719 10.2979 3.99763 10.7574 3.78599 11.2637C3.57434 11.7699 3.46477 12.313 3.46357 12.8617C3.46237 13.4104 3.56956 13.9539 3.77898 14.4611C3.98841 14.9683 4.29595 15.4291 4.68395 15.8171C5.07194 16.2051 5.53276 16.5126 6.03993 16.7221C6.5471 16.9315 7.09064 17.0387 7.63935 17.0375C8.18806 17.0363 8.73113 16.9267 9.23738 16.7151C9.74363 16.5034 10.2031 16.1938 10.5894 15.8042L11.7677 14.6258L12.9469 15.8042V15.8033ZM12.3569 6.96416L13.536 8.14332L7.64355 14.035L6.46438 12.8567L12.3569 6.96499V6.96416Z" fill="#A1A2B3"/>
</g>
<defs>
<clipPath id="clip0_18_464">
<rect width="20" height="20" fill="white" transform="translate(0 0.5)"/>
</clipPath>
</defs>
</svg>
