<svg width="21" height="20" viewBox="0 0 21 20" fill="none" xmlns="http://www.w3.org/2000/svg">
<path d="M14.7367 13.1767C15.5203 12.3487 16.0442 11.3092 16.2435 10.1867C16.4428 9.06416 16.3088 7.90785 15.8581 6.86067C15.4074 5.81349 14.6597 4.92133 13.7074 4.29448C12.7551 3.66763 11.6401 3.33356 10.5 3.33356C9.35994 3.33356 8.24487 3.66763 7.2926 4.29448C6.34034 4.92133 5.59264 5.81349 5.14191 6.86067C4.69119 7.90785 4.5572 9.06416 4.7565 10.1867C4.9558 11.3092 5.47967 12.3487 6.26334 13.1767C6.71306 12.4591 7.3378 11.8675 8.07889 11.4576C8.81999 11.0477 9.65311 10.8329 10.5 10.8334C11.3469 10.8329 12.18 11.0477 12.9211 11.4576C13.6622 11.8675 14.287 12.4591 14.7367 13.1767ZM10.5 19.7734L5.19667 14.47C4.14779 13.4211 3.43349 12.0847 3.14411 10.6299C2.85473 9.17504 3.00326 7.66704 3.57092 6.2966C4.13858 4.92616 5.09987 3.75483 6.33324 2.93072C7.5666 2.10661 9.01665 1.66675 10.5 1.66675C11.9834 1.66675 13.4334 2.10661 14.6668 2.93072C15.9001 3.75483 16.8614 4.92616 17.4291 6.2966C17.9968 7.66704 18.1453 9.17504 17.8559 10.6299C17.5665 12.0847 16.8522 13.4211 15.8033 14.47L10.5 19.7734ZM10.5 10C9.83696 10 9.20108 9.73663 8.73224 9.26778C8.2634 8.79894 8 8.16306 8 7.50002C8 6.83698 8.2634 6.20109 8.73224 5.73225C9.20108 5.26341 9.83696 5.00002 10.5 5.00002C11.163 5.00002 11.7989 5.26341 12.2678 5.73225C12.7366 6.20109 13 6.83698 13 7.50002C13 8.16306 12.7366 8.79894 12.2678 9.26778C11.7989 9.73663 11.163 10 10.5 10Z" fill="#10B981"/>
</svg>
