<svg width="20" height="21" viewBox="0 0 20 21" fill="none" xmlns="http://www.w3.org/2000/svg">
<g clip-path="url(#clip0_18_463)">
<path d="M1.6665 3.8275C1.66803 3.60865 1.75559 3.39918 1.91026 3.24435C2.06494 3.08951 2.27432 3.00175 2.49317 3H17.5065C17.9632 3 18.3332 3.37083 18.3332 3.8275V17.1725C18.3316 17.3914 18.2441 17.6008 18.0894 17.7557C17.9347 17.9105 17.7254 17.9983 17.5065 18H2.49317C2.27385 17.9998 2.06358 17.9125 1.90858 17.7573C1.75357 17.6022 1.6665 17.3918 1.6665 17.1725V3.8275ZM9.99984 13C9.3368 13 8.70091 12.7366 8.23207 12.2678C7.76323 11.7989 7.49984 11.163 7.49984 10.5C7.49984 9.83696 7.76323 9.20107 8.23207 8.73223C8.70091 8.26339 9.3368 8 9.99984 8C10.6629 8 11.2988 8.26339 11.7676 8.73223C12.2364 9.20107 12.4998 9.83696 12.4998 10.5C12.4998 11.163 12.2364 11.7989 11.7676 12.2678C11.2988 12.7366 10.6629 13 9.99984 13ZM9.99984 14.6667C11.1049 14.6667 12.1647 14.2277 12.9461 13.4463C13.7275 12.6649 14.1665 11.6051 14.1665 10.5C14.1665 9.39493 13.7275 8.33512 12.9461 7.55372C12.1647 6.77232 11.1049 6.33333 9.99984 6.33333C8.89477 6.33333 7.83496 6.77232 7.05356 7.55372C6.27216 8.33512 5.83317 9.39493 5.83317 10.5C5.83317 11.6051 6.27216 12.6649 7.05356 13.4463C7.83496 14.2277 8.89477 14.6667 9.99984 14.6667ZM14.9998 4.66667V6.33333H16.6665V4.66667H14.9998Z" fill="#A1A2B3"/>
</g>
<defs>
<clipPath id="clip0_18_463">
<rect width="20" height="20" fill="white" transform="translate(0 0.5)"/>
</clipPath>
</defs>
</svg>
