<svg width="4" height="12" viewBox="0 0 4 12" fill="none" xmlns="http://www.w3.org/2000/svg">
<path d="M1.99984 0C1.2665 0 0.666504 0.6 0.666504 1.33333C0.666504 2.06667 1.2665 2.66667 1.99984 2.66667C2.73317 2.66667 3.33317 2.06667 3.33317 1.33333C3.33317 0.6 2.73317 0 1.99984 0ZM1.99984 9.33333C1.2665 9.33333 0.666504 9.93333 0.666504 10.6667C0.666504 11.4 1.2665 12 1.99984 12C2.73317 12 3.33317 11.4 3.33317 10.6667C3.33317 9.93333 2.73317 9.33333 1.99984 9.33333ZM1.99984 4.66667C1.2665 4.66667 0.666504 5.26667 0.666504 6C0.666504 6.73333 1.2665 7.33333 1.99984 7.33333C2.73317 7.33333 3.33317 6.73333 3.33317 6C3.33317 5.26667 2.73317 4.66667 1.99984 4.66667Z" fill="#7D7F96"/>
</svg>
